<?xml version="1.0" encoding="UTF-8"?>
<svg width="578px" height="454px" viewBox="0 0 578 454" version="1.1" xmlns="http://www.w3.org/2000/svg" xmlns:xlink="http://www.w3.org/1999/xlink">
    <title>编组 3</title>
    <defs>
        <path d="M56.8122359,316.661361 L57.349617,316.798906 L57.349617,316.798906 C51.1504038,341.210273 53.8547066,362.248877 65.3852046,379.327729 C86.4938445,410.593109 130.941836,419.576166 149.071684,421.986113 C169.40518,424.688586 191.505462,421.35263 216.636729,411.780647 C239.113951,403.219911 261.995175,390.528945 284.120587,378.256426 C306.677063,365.745625 330.00095,352.808627 353.276512,343.972801 C370.567426,337.409376 388.612221,332.864573 406.061643,328.470876 C436.253571,320.867145 467.473868,313.003821 495.158661,294.456529 C517.711271,279.34593 532.616832,258.950495 536.053751,238.496943 C540.028052,214.84498 529.249501,193.449921 517.00765,173.852636 C500.186461,146.924773 484.244798,125.198444 468.270274,107.431866 C448.559212,85.5079361 428.500205,69.091626 406.946969,57.2491781 C383.271271,44.2366273 356.852609,37.2760654 330.544131,37.1144856 C302.29876,36.9467318 275.004438,44.7790591 251.55877,59.7734231 C218.993087,80.5969914 193.223922,114.967793 170.485742,145.293604 L103.289904,234.91883 C85.4635419,258.696715 65.2576249,285.645887 57.349617,316.798906 L56.8122359,316.661361 Z M162.952741,424.00086 C158.178167,424.00086 153.50991,423.69671 148.926707,423.086475 C130.648016,420.655218 85.8288837,411.584984 64.4689504,379.947651 C52.752882,362.595646 49.9963875,341.256767 56.2767878,316.523816 C64.2389204,285.157699 84.5163593,258.1136 102.404579,234.252414 L169.602349,144.627187 C192.394654,114.225824 218.229542,79.7697829 250.963398,58.8377283 C274.59077,43.7310034 302.097725,35.8211859 330.54993,36.0039569 C357.042046,36.1679547 383.642412,43.1769481 407.478551,56.2766754 C429.141969,68.1811155 449.295695,84.6710414 469.093743,106.689897 C485.108861,124.504906 501.089184,146.281604 517.945167,173.263711 C530.303,193.046972 541.180135,214.662878 537.143978,238.680982 C533.656799,259.434809 518.5792,280.099522 495.773363,295.378663 C467.928129,314.032504 436.615046,321.919075 406.332267,329.546053 C388.91184,333.933939 370.897974,338.470993 353.668916,345.01117 C330.466809,353.817937 307.17965,366.733625 284.656035,379.225054 C262.495829,391.516946 239.581743,404.227284 217.029133,412.817079 C197.376061,420.302637 179.547766,424.00086 162.952741,424.00086 L162.952741,424.00086 Z" id="path-1"></path>
        <mask id="mask-2" maskContentUnits="userSpaceOnUse" maskUnits="objectBoundingBox" x="0" y="0" width="485" height="388" fill="white">
            <use xlink:href="#path-1"></use>
        </mask>
    </defs>
    <g id="页面-1" stroke="none" stroke-width="1" fill="none" fill-rule="evenodd">
        <g id="banner" transform="translate(-310.000000, -69.000000)">
            <g id="编组-3" transform="translate(310.000000, 68.999140)">
                <g id="编组" transform="translate(27.999996, 0.000000)">
                    <g transform="translate(78.000004, 69.000860)" fill="#151220" id="Fill-1">
                        <path d="M5.22368283,247.405041 C14.9923533,218.733624 35.5953322,195.022853 55.5252766,172.451037 C79.2342711,145.600395 102.941332,118.749754 126.648392,91.897176 C152.134739,63.0320588 178.553278,33.411513 210.884077,16.2148608 C260.928447,-10.4091518 317.948782,-2.14011506 360.286134,25.7158272 C402.623486,53.5737064 432.354979,98.6127418 456.878191,145.827024 C466.668135,164.677871 476.011324,186.405157 470.215105,209.468971 C464.583276,231.889702 445.83501,249.396273 426.566496,260.179531 C382.500141,284.843304 333.546551,283.171676 286.935043,296.715153 C218.807704,316.511254 150.266488,369.658556 85.35347,355.690876 C38.5582313,345.62237 -17.5163741,314.151993 5.22368283,247.405041"></path>
                    </g>
                    <use id="Fill-3" stroke="#2AD5A2" mask="url(#mask-2)" stroke-width="2" opacity="0.300000012" stroke-linecap="round" stroke-linejoin="round" stroke-dasharray="9,8" xlink:href="#path-1"></use>
                    <g transform="translate(0.000000, 25.000860)" fill="#272B41" id="Fill-5">
                        <path d="M382.954065,66.9689938 C377.727017,62.8744025 372.617931,58.7624038 367.709959,54.596249 C303.834777,0.349199927 184.813564,-29.2026474 103.037241,42.1596773 C55.3556584,83.7690033 5.887249,133.5385 0.480358233,189.510809 C-2.90184919,224.518888 12.0347833,255.970068 30.8660788,282.95917 C48.049781,307.584742 69.0952718,330.102093 96.5667633,344.788079 C168.366637,383.17318 267.549048,361.943972 357.275201,339.919828 C391.08954,331.620399 426.899556,322.311345 453.814114,299.037742 C496.485235,262.141935 501.112806,201.320717 478.978589,159.910608 C458.242505,121.117401 417.942218,94.3797393 382.954065,66.9689938"></path>
                    </g>
                    <g transform="translate(317.000004, 0.000000)" fill="#272B41" id="Fill-7">
                        <path d="M105.389383,34.9060368 C100.652048,26.2220304 95.2550346,15.4884668 85.5334669,10.2223243 C78.6299965,6.48318891 67.2862387,1.70282433 59.7790281,0.471928831 C49.0602282,-1.28732275 38.3047795,2.30665985 28.5021987,4.13171402 C17.9897892,6.09030875 -2.72447969,12.2215618 0.298079155,24.7376014 C3.28013146,37.0775222 13.8426919,43.2261936 26.0698779,48.1304219 C35.4133846,51.8772988 46.0993936,55.1248501 55.8537522,56.6286328 C74.3787396,59.4833039 100.333782,63.1547014 107,45.0415709 L105.389383,34.9060368 Z"></path>
                    </g>
                    <path d="M36.1792869,147.618792 C38.4886362,147.618792 40.360506,149.49355 40.360506,151.808856 C40.360506,154.124162 38.4886362,156.00086 36.1792869,156.00086 C33.8718734,156.00086 32.0000036,154.124162 32.0000036,151.808856 C32.0000036,149.49355 33.8718734,147.618792 36.1792869,147.618792 Z M55.4729031,147.618792 C57.7822523,147.618792 59.6541222,149.49355 59.6541222,151.808856 C59.6541222,154.124162 57.7822523,156.00086 55.4729031,156.00086 C53.1635538,156.00086 51.2936197,154.124162 51.2936197,151.808856 C51.2936197,149.49355 53.1635538,147.618792 55.4729031,147.618792 Z M74.7665192,147.618792 C77.0739327,147.618792 78.9458026,149.49355 78.9458026,151.808856 C78.9458026,154.124162 77.0739327,156.00086 74.7665192,156.00086 C72.45717,156.00086 70.5853001,154.124162 70.5853001,151.808856 C70.5853001,149.49355 72.45717,147.618792 74.7665192,147.618792 Z M36.1812227,128.616851 C38.4886362,128.616851 40.360506,130.49355 40.360506,132.808856 C40.360506,135.124162 38.4886362,137.00086 36.1812227,137.00086 C33.8718734,137.00086 32.0000036,135.124162 32.0000036,132.808856 C32.0000036,130.49355 33.8718734,128.616851 36.1812227,128.616851 Z M55.4729031,128.616851 C57.7822523,128.616851 59.6541222,130.49355 59.6541222,132.808856 C59.6541222,135.124162 57.7822523,137.00086 55.4729031,137.00086 C53.1654896,137.00086 51.2936197,135.124162 51.2936197,132.808856 C51.2936197,130.49355 53.1654896,128.616851 55.4729031,128.616851 Z M74.7665192,128.616851 C77.0739327,128.616851 78.9458026,130.49355 78.9458026,132.808856 C78.9458026,135.124162 77.0739327,137.00086 74.7665192,137.00086 C72.45717,137.00086 70.5853001,135.124162 70.5853001,132.808856 C70.5853001,130.49355 72.45717,128.616851 74.7665192,128.616851 Z M36.2354237,111.00086 C38.5428372,111.00086 40.414707,112.875617 40.414707,115.190923 C40.414707,117.506229 38.5428372,119.382927 36.2354237,119.382927 C33.9260744,119.382927 32.0542045,117.506229 32.0542045,115.190923 C32.0542045,112.875617 33.9260744,111.00086 36.2354237,111.00086 Z M55.5271041,111.00086 C57.8364533,111.00086 59.7083232,112.875617 59.7083232,115.190923 C59.7083232,117.506229 57.8364533,119.382927 55.5271041,119.382927 C53.2196905,119.382927 51.3478207,117.506229 51.3478207,115.190923 C51.3478207,112.875617 53.2196905,111.00086 55.5271041,111.00086 Z M74.8207202,111.00086 C77.1300695,111.00086 79.0000036,112.875617 79.0000036,115.190923 C79.0000036,117.506229 77.1300695,119.382927 74.8207202,119.382927 C72.5113709,119.382927 70.6395011,117.506229 70.6395011,115.190923 C70.6395011,112.875617 72.5113709,111.00086 74.8207202,111.00086 Z M36.2354237,92.0008597 C38.5428372,92.0008597 40.414707,93.8756171 40.414707,96.1909231 C40.414707,98.5062291 38.5428372,100.382927 36.2354237,100.382927 C33.9260744,100.382927 32.0542045,98.5062291 32.0542045,96.1909231 C32.0542045,93.8756171 33.9260744,92.0008597 36.2354237,92.0008597 Z M55.5271041,92.0008597 C57.8364533,92.0008597 59.7083232,93.8756171 59.7083232,96.1909231 C59.7083232,98.5062291 57.8364533,100.382927 55.5271041,100.382927 C53.2196905,100.382927 51.3478207,98.5062291 51.3478207,96.1909231 C51.3478207,93.8756171 53.2196905,92.0008597 55.5271041,92.0008597 Z M74.8207202,92.0008597 C77.1300695,92.0008597 79.0000036,93.8756171 79.0000036,96.1909231 C79.0000036,98.5062291 77.1300695,100.382927 74.8207202,100.382927 C72.5113709,100.382927 70.6414368,98.5062291 70.6414368,96.1909231 C70.6414368,93.8756171 72.5113709,92.0008597 74.8207202,92.0008597 Z" id="形状结合" fill="#14B886"></path>
                </g>
                <g id="编组-2" transform="translate(72.000000, 81.000860)">
                    <rect id="矩形" stroke="#5A5A5A" fill="#130F1E" x="0.5" y="0.5" width="396" height="265" rx="20"></rect>
                    <rect id="矩形" fill="#15E2A0" opacity="0.800000012" x="27" y="47" width="239" height="30" rx="8"></rect>
                    <circle id="椭圆形" fill="#15E2A0" opacity="0.800000012" cx="315" cy="62" r="15"></circle>
                    <rect id="矩形" fill="#FDA56A" opacity="0.901245117" x="27" y="112" width="172" height="30" rx="8"></rect>
                    <circle id="椭圆形" fill="#E59663" opacity="0.897346593" cx="315" cy="127" r="15"></circle>
                    <circle id="椭圆形" fill="#F23182" opacity="0.600000024" cx="33" cy="181" r="6"></circle>
                    <circle id="椭圆形" fill="#F23182" opacity="0.600000024" cx="130" cy="181" r="6"></circle>
                    <rect id="矩形" fill="#F23182" opacity="0.600000024" x="39" y="179" width="85" height="4"></rect>
                </g>
                <g id="人" transform="translate(0.000000, 181.000860)">
                    <path d="M12.9138446,254.055685 L27.823618,255.312018 L25.6158687,263.704584 L24.7409414,263.704584 C37.325129,266.675457 42.4926154,268.809913 40.2434007,270.107953 C39.1476294,270.740331 36.423528,271.064628 32.0710966,271.080842 L31.3703387,271.080842 C26.8465041,271.064628 20.6943394,270.740331 12.9138446,270.107953 L12.9138446,254.055685 Z" id="形状结合" fill="#252188"></path>
                    <path d="M52.4667871,254.055685 L66.0221515,255.729836 L65.1472242,264.153181 L64.022553,264.113521 C75.3641169,266.872117 79.9625762,268.870261 77.8179309,270.107953 C75.5687162,271.405992 67.1183349,271.405992 52.4667871,270.107953 L52.4667871,254.055685 Z" id="形状结合" fill="#252188" transform="translate(65.398148, 262.568584) rotate(-9.000000) translate(-65.398148, -262.568584) "></path>
                    <polygon id="路径-17" fill="#2E2A89" points="19.972362 124.184121 9.43715453 256.885395 29.8265061 256.885395 35.5015113 190.534758 47.8154449 256.885395 67.831001 256.885395 60.021664 124.184121"></polygon>
                    <path d="M44.1189077,16.3361744 C47.7555565,25.3292373 49.2753192,30.7689403 48.678196,32.6552833 C47.7825111,35.4847979 43.0833035,39.4194212 39.636251,39.4194212 C37.6362305,40.8420679 38.7538933,41.7306319 39.636251,46.5975373 C39.636251,52.2955138 26.7351607,51.5664035 26.7351607,49.328962 C26.7351607,47.0915206 28.4910165,43.8395704 25.9455553,37.6437995 C24.6961488,34.8526339 28.091188,30.3939099 36.1306731,24.2676277 L44.1189077,16.3361744 Z" id="路径-13" fill="#C8A9A9"></path>
                    <path d="M44.780809,17.9517187 C48.9205411,15.1994644 50.3004518,11.7349983 48.9205411,7.55832042 C46.8506751,1.29330361 37.1856034,-1.95602336 28.9075517,1.25740961 C20.6295001,4.47084257 9.09295449,12.9284848 13.814475,22.4282888 C18.5359956,31.9280928 23.4675128,31.1138198 26.0770945,39.4194212 C31.131297,38.66738 44.780809,37.3411064 41.1438532,20.9913444 C42.1933417,19.7867651 43.4056603,18.7735565 44.780809,17.9517187 Z" id="路径-12" fill="#353032"></path>
                    <path d="M100.844131,19.550867 L113.601996,7.02301572 C114.27807,6.35913108 114.287951,5.27288021 113.624066,4.59680651 C113.570988,4.5427539 113.514388,4.49227618 113.454638,4.44570477 C112.599684,3.77932156 111.367073,3.92840412 110.695643,4.77940133 L99.6391764,18.7928193 L99.6391764,18.7928193 L100.844131,19.550867 Z" id="路径-16" fill="#FFFEFE"></path>
                    <path d="M94.7109051,25.1626129 L101.593485,29.5308425 C106.027057,26.7281611 109.089712,24.0800545 110.781451,21.5865228 C113.319059,17.8462253 110.781451,17.302695 110.781451,15.6501981 C110.781451,13.9977011 112.151307,10.6902543 110.781451,10.6902543 C109.411595,10.6902543 105.091866,17.2883585 102.566898,17.2883585 C100.04193,17.2883585 102.566898,14.0728775 102.566898,13.2975318 C102.566898,12.522186 100.679884,12.522186 100.210426,13.8645924 C99.8974538,14.7595299 98.0642802,18.5255368 94.7109051,25.1626129 Z" id="路径-15" fill="#C8A9A9"></path>
                    <path d="M26.8443336,47.921402 C12.3253431,51.1811837 3.84952252,61.4453157 1.4168718,78.7137981 C-2.23210428,104.616522 0.869152213,120.107747 14.2085499,126.349991 C15.7220577,131.343939 16.6004303,135.383027 19.1149745,136.611088 C21.6295188,137.839148 28.6455553,137.684884 41.044251,136.611088 C49.3100481,135.895223 56.2674625,135.047476 61.9164941,134.067845 C62.7904508,107.517733 61.8884034,88.7998429 59.2103518,77.9141761 C62.5745366,78.7137981 75.4856851,82.311813 86.2410773,77.9141761 C93.4113388,74.9824181 98.5288079,58.8546403 101.593485,29.5308425 C97.0222474,24.4011809 94.7366287,22.6550097 94.7366287,24.2923289 C94.7366287,26.7483077 79.3593405,58.4817909 76.9240402,60.0226467 C75.3584166,57.5157137 63.7020104,50.1084461 54.1830626,47.921402 C47.8370973,46.4633726 42.9881601,46.0220844 39.636251,46.5975373 C36.6888374,47.4801138 34.3667048,47.921402 32.6698532,47.921402 C30.9730016,47.921402 29.0311617,47.921402 26.8443336,47.921402 Z" id="路径-14" fill="#4541A1"></path>
                </g>
            </g>
        </g>
    </g>
</svg>