<?xml version="1.0" encoding="UTF-8"?>
<svg width="244px" height="167px" viewBox="0 0 244 167" version="1.1" xmlns="http://www.w3.org/2000/svg" xmlns:xlink="http://www.w3.org/1999/xlink">
    <title>Gantt_Logo</title>
    <g id="页面-1" stroke="none" stroke-width="1" fill="none" fill-rule="evenodd">
        <g id="画板" transform="translate(-1098.000000, -678.000000)">
            <g id="编组-5" transform="translate(144.000000, 120.000000)">
                <g id="编组-10" transform="translate(767.000000, 454.000000)">
                    <g id="Gantt_Logo" transform="translate(309.000000, 187.500514) rotate(-270.000000) translate(-309.000000, -187.500514) translate(225.999486, 66.000514)">
                        <circle id="椭圆形" fill="#15E2A0" cx="28" cy="28" r="28"></circle>
                        <path d="M48,111 C58.2004643,111 67.7639413,113.727267 76.0010279,118.492398 L75.9999907,118.491 L76,185 C76,200.463973 63.463973,213 48,213 C32.536027,213 20,200.463973 20,185 L19.9999884,118.49181 C28.2368453,113.727043 37.7999552,111 48,111 Z M48,9 C63.463973,9 76,21.536027 76,37 L75.9999907,108.491 L75.424204,108.163262 C67.5117701,103.710496 58.4080374,101.12501 48.7106181,101.004416 L48,101 C37.7995434,101 28.2360731,103.727263 19.9989907,108.492387 L19.9999907,108.491 L20,37 C20,21.536027 32.536027,9 48,9 Z" id="形状结合" fill="#FFFFFF"></path>
                        <path d="M138,141 C148.200464,141 157.763941,143.727267 166.001028,148.492398 L165.999991,148.491 L166,215 C166,230.463973 153.463973,243 138,243 C122.536027,243 110,230.463973 110,215 L109.999988,148.49181 C118.236845,143.727043 127.799955,141 138,141 Z M138,39 C153.463973,39 166,51.536027 166,67 L165.999991,138.491 L165.424204,138.163262 C157.51177,133.710496 148.408037,131.12501 138.710618,131.004416 L138,131 C127.799543,131 118.236073,133.727263 109.998991,138.492387 L109.999991,138.491 L110,67 C110,51.536027 122.536027,39 138,39 Z" id="形状结合" fill="#FFFFFF" transform="translate(138.000009, 141.000000) scale(1, -1) translate(-138.000009, -141.000000) "></path>
                        <path d="M109.998991,143.507613 C118.236073,148.272737 127.799543,151 138,151 L138,151 L138.710618,150.995584 C148.408037,150.87499 157.51177,148.289504 165.424204,143.836738 L165.424204,143.836738 L165.999991,143.509 L166,215 C166,230.463973 153.463973,243 138,243 C122.536027,243 110,230.463973 110,215 L110,215 L109.999991,143.509 Z" id="形状结合" fill="#4063DB"></path>
                    </g>
                </g>
            </g>
        </g>
    </g>
</svg>